<svg width="13" height="24" viewBox="0 0 13 24" fill="none" xmlns="http://www.w3.org/2000/svg">
<g clip-path="url(#clip0_2209_156)">
<path fill-rule="evenodd" clip-rule="evenodd" d="M0.0308303 11.1202C0.0331832 11.251 0.0612352 11.3844 0.116596 11.4977L0.116595 11.4981L5.87844 22.9145C5.92527 23.0075 6.00406 23.0649 6.08365 23.0639C6.16324 23.063 6.24156 23.0037 6.28754 22.9095L11.8616 11.5216C11.9711 11.3187 12.0843 10.9633 11.9864 10.7349C11.9315 10.6134 11.8228 10.5485 11.7245 10.5783L8.32627 11.6037L9.15852 0.425731C9.16608 0.324737 9.1428 0.219772 9.09611 0.144091C9.04943 0.0684072 8.98007 0.0231927 8.90991 0.0227075L3.60845 0.00909875C3.25498 0.0058091 3.20741 0.439225 3.23723 0.787104L3.98298 11.558L0.489311 10.5481C0.18664 10.469 0.0248187 10.786 0.0308303 11.1202Z" fill="#C4B3C4"/>
</g>
<defs>
<clipPath id="clip0_2209_156">
<rect width="23.0484" height="11.9926" fill="white" transform="translate(0 23.0483) rotate(-89.8529)"/>
</clipPath>
</defs>
</svg>
