<?xml version="1.0" encoding="utf-8"?>
<svg xml:space="preserve" viewBox="0 0 100 100" y="0px" x="0px" xmlns:xlink="http://www.w3.org/1999/xlink" xmlns="http://www.w3.org/2000/svg" id="圖層_1" version="1.1" style="height: 100%; width: 100%; background: none; shape-rendering: auto;" width="200px" height="200px"><g class="ldl-scale" style="transform-origin: 50% 50%; transform: rotate(0deg) scale(0.8, 0.8);"><g class="ldl-ani"><g class="ldl-layer"><g class="ldl-ani" style="transform: scale(0.91); transform-origin: 50px 50px; animation: 1.11111s linear -0.833333s infinite normal forwards running breath-d28d1682-589f-4864-93e7-842df889181b;"><path d="M42.4,62l7-6.8l-7.8-5.9l7-6.8l-4.1-6.1l0,0C43.3,12,8.6,13.7,10,39.3c1.1,19.8,22.4,29.5,32.3,36.3l7.9-7.6L42.4,62z" stroke-miterlimit="10" stroke-linejoin="round" stroke-linecap="round" stroke-width="3.5" stroke="#333435" fill="#C33837" style="fill: rgb(242, 182, 255); stroke: rgb(237, 0, 255);"></path></g></g><g class="ldl-layer"><g class="ldl-ani" style="transform: scale(0.91); transform-origin: 50px 50px; animation: 1.11111s linear -1.11111s infinite normal forwards running breath-d28d1682-589f-4864-93e7-842df889181b;"><path d="M55.3,36.5l3.4,6.6l-7.7,6l7.1,6.8l-7.7,6l7.1,6.8l-8.6,6.7c2.7,2.3,4.4,4.2,4.3,5.9c0.4-6.6,35.7-16.1,37-41.7S56.6,12.4,55.3,36.5 z" stroke-miterlimit="10" stroke-linejoin="round" stroke-linecap="round" stroke-width="3.5" stroke="#333435" fill="#C33837" style="fill: rgb(242, 182, 255); stroke: rgb(237, 0, 255);"></path></g></g><metadata xmlns:d="https://loading.io/stock/">
<d:name>broken heart</d:name>
<d:tags>heart,break,sad,dumped,throw away,cry,pain,trauma</d:tags>
<d:license>by</d:license>
<d:slug>a3jb1x</d:slug>
</metadata></g></g><style id="breath-d28d1682-589f-4864-93e7-842df889181b" data-anikit="">@keyframes breath-d28d1682-589f-4864-93e7-842df889181b
{
  0% {
    animation-timing-function: cubic-bezier(0.9647,0.2413,-0.0705,0.7911);
    transform: scale(0.9099999999999999);
  }
  51% {
    animation-timing-function: cubic-bezier(0.9226,0.2631,-0.0308,0.7628);
    transform: scale(1.02994);
  }
  100% {
    transform: scale(0.9099999999999999);
  }
}</style><!-- [ldio] generated by https://loading.io/ --></svg>