<svg width="114" height="100" viewBox="0 0 114 100" fill="none" xmlns="http://www.w3.org/2000/svg">
<g clip-path="url(#clip0_354_3)">
<path d="M37.0736 54.4055L4.09347 82.703C-0.198473 86.4585 -0.198473 92.5767 4.09347 96.3319C8.38541 100.087 15.3775 100.087 19.6695 96.3319L52.8576 67.8631C46.1599 64.8924 40.6364 60.178 37.0736 54.4055Z" fill="#E0E0E2"/>
<path d="M43.451 61.8938L4.09326 96.3323C8.3852 100.088 15.3773 100.088 19.6691 96.3323L52.8574 67.8632C49.3661 66.3144 46.1929 64.2932 43.451 61.8938Z" fill="#C6C5CA"/>
<path d="M25.3445 39.1902C25.3445 60.4453 45.1089 77.7391 69.4 77.7391C93.6912 77.7391 113.456 60.4453 113.456 39.1902C113.456 17.935 93.6914 0.641174 69.4002 0.641174C45.1091 0.641174 25.3445 17.9352 25.3445 39.1902Z" fill="#ED539D"/>
<path d="M100.533 11.9418C108.513 18.9223 113.456 28.5608 113.456 39.19C113.456 60.4452 93.6912 77.739 69.4001 77.739C57.2525 77.739 46.2371 73.414 38.2593 66.4318L100.533 11.9418Z" fill="#EA348B"/>
<path d="M32.9644 32.7643C32.9644 30.9886 34.6065 29.5465 36.6331 29.5465C36.6356 29.5465 36.6356 29.5465 36.6356 29.5465C38.6625 29.5465 40.3068 30.9869 40.3068 32.7602C40.3138 45.1393 49.4203 58.4633 69.3998 58.4633C84.379 58.4633 91.203 48.4733 91.203 39.1897C91.2005 29.9058 84.3766 19.9157 69.3998 19.9157C64.8583 19.9157 61.0892 21.2754 58.4983 23.8476C56.1893 26.1376 54.8676 29.388 54.87 32.7654C54.8724 39.1608 59.3658 45.6151 69.3998 45.6151C74.7489 45.6151 76.6468 42.1538 76.6468 39.1924C76.6443 36.2267 74.7465 32.7654 69.3998 32.7654C67.3729 32.7654 65.7286 31.3264 65.7286 29.5531C65.7286 27.7795 67.3731 26.3407 69.3998 26.3407C78.9747 26.3407 83.9872 32.8033 83.9894 39.1905C83.9894 45.5755 78.9771 52.0402 69.3998 52.0402C55.0446 52.0402 47.5298 42.3445 47.5274 32.7677C47.5249 27.7755 49.4634 23.0992 52.9889 19.598C57.0139 15.6036 62.6882 13.491 69.3998 13.491C88.5307 13.491 98.5432 26.4181 98.5456 39.1905C98.5456 51.9607 88.5331 64.8882 69.3998 64.8882C45.4914 64.888 32.9714 48.7259 32.9644 32.7643Z" fill="#FFCCE4"/>
<path d="M76.647 39.1922C76.647 42.1536 74.7492 45.6149 69.4001 45.6149C67.0246 45.6149 64.9637 45.2498 63.1953 44.6127L57.7446 49.3821C60.9151 51.046 64.8067 52.04 69.4001 52.04C78.9776 52.04 83.9896 45.5753 83.9896 39.1903C83.9883 35.8311 82.5995 32.4527 79.8923 30.0029L74.7019 34.5445C76.0799 35.8148 76.6459 37.5764 76.647 39.1922Z" fill="#F7AFD1"/>
<path d="M98.5459 39.1903C98.5446 32.4791 95.778 25.7262 90.3785 20.8275L85.189 25.3683C89.2639 29.098 91.2018 34.2444 91.2031 39.1904C91.2031 48.4744 84.3792 58.465 69.3999 58.465C62.3819 58.465 56.7073 56.8196 52.2953 54.1502L47.0598 58.7313C52.8052 62.5322 60.2714 64.8897 69.3997 64.8897C88.5337 64.8897 98.5459 51.9603 98.5459 39.1903Z" fill="#F7AFD1"/>
</g>
<defs>
<clipPath id="clip0_354_3">
<rect width="112.581" height="98.5095" fill="white" transform="translate(0.874512 0.64032)"/>
</clipPath>
</defs>
</svg>
