<svg width="23" height="22" viewBox="0 0 23 22" fill="none" xmlns="http://www.w3.org/2000/svg">
<path d="M0.303223 10.9575C0.303223 16.999 5.39436 21.9145 11.6516 21.9145C17.9088 21.9145 23 16.999 23 10.9575C23 4.91602 17.9088 0.000488281 11.6516 0.000488281C5.39442 0.000488281 0.303223 4.91607 0.303223 10.9575Z" fill="#ED539D"/>
<path d="M19.3625 2.89648C21.418 4.8806 22.6912 7.62022 22.6912 10.6414C22.6912 16.6829 17.6001 21.5985 11.3429 21.5985C8.21379 21.5985 5.37632 20.3691 3.32129 18.3845L19.3625 2.89648Z" fill="#EA348B"/>
<path d="M2.26611 9.13099C2.26611 8.62628 2.68911 8.21639 3.21116 8.21639C3.21178 8.21639 3.21178 8.21639 3.21178 8.21639C3.7339 8.21639 4.15746 8.62578 4.15746 9.12984C4.15927 12.6484 6.50504 16.4356 11.6516 16.4356C15.5101 16.4356 17.2679 13.5961 17.2679 10.9573C17.2673 8.31849 15.5095 5.47896 11.6516 5.47896C10.4817 5.47896 9.51084 5.86543 8.84345 6.59655C8.24866 7.24744 7.9082 8.17133 7.90882 9.13131C7.90944 10.9491 9.06689 12.7837 11.6516 12.7837C13.0295 12.7837 13.5183 11.7998 13.5183 10.9581C13.5177 10.1151 13.0288 9.13131 11.6516 9.13131C11.1295 9.13131 10.7059 8.72231 10.7059 8.21825C10.7059 7.71414 11.1295 7.30519 11.6516 7.30519C14.118 7.30519 15.4092 9.14209 15.4097 10.9575C15.4097 12.7724 14.1186 14.6099 11.6516 14.6099C7.95379 14.6099 6.01804 11.854 6.01742 9.13197C6.0168 7.713 6.51614 6.38382 7.42426 5.38867C8.46107 4.2533 9.92273 3.65283 11.6516 3.65283C16.5795 3.65283 19.1587 7.32717 19.1593 10.9575C19.1593 14.5873 16.5802 18.2618 11.6516 18.2618C5.49298 18.2617 2.26793 13.6679 2.26611 9.13099Z" fill="#FFCCE4"/>
</svg>
