<svg width="35" height="35" viewBox="0 0 35 35" fill="none" xmlns="http://www.w3.org/2000/svg">
<path d="M17.5 3.15137C22.1758 3.15137 22.7295 3.17187 24.5684 3.25391C26.2773 3.3291 27.2002 3.61621 27.8154 3.85547C28.6289 4.16992 29.2168 4.55273 29.8252 5.16113C30.4404 5.77637 30.8164 6.35742 31.1309 7.1709C31.3701 7.78613 31.6572 8.71582 31.7324 10.418C31.8145 12.2637 31.835 12.8174 31.835 17.4863C31.835 22.1621 31.8145 22.7158 31.7324 24.5547C31.6572 26.2637 31.3701 27.1865 31.1309 27.8018C30.8164 28.6152 30.4336 29.2031 29.8252 29.8115C29.21 30.4268 28.6289 30.8027 27.8154 31.1172C27.2002 31.3564 26.2705 31.6436 24.5684 31.7188C22.7227 31.8008 22.1689 31.8213 17.5 31.8213C12.8242 31.8213 12.2705 31.8008 10.4316 31.7188C8.72266 31.6436 7.79981 31.3564 7.18457 31.1172C6.37109 30.8027 5.7832 30.4199 5.17481 29.8115C4.55957 29.1963 4.18359 28.6152 3.86914 27.8018C3.62988 27.1865 3.34277 26.2568 3.26758 24.5547C3.18555 22.709 3.16504 22.1553 3.16504 17.4863C3.16504 12.8105 3.18555 12.2568 3.26758 10.418C3.34277 8.70898 3.62988 7.78613 3.86914 7.1709C4.18359 6.35742 4.56641 5.76953 5.17481 5.16113C5.79004 4.5459 6.37109 4.16992 7.18457 3.85547C7.79981 3.61621 8.72949 3.3291 10.4316 3.25391C12.2705 3.17187 12.8242 3.15137 17.5 3.15137ZM17.5 0C12.749 0 12.1543 0.0205078 10.2881 0.102539C8.42871 0.18457 7.15039 0.485351 6.04297 0.916016C4.8877 1.36719 3.91016 1.96191 2.93945 2.93945C1.96191 3.91016 1.36719 4.8877 0.916016 6.03613C0.485352 7.15039 0.18457 8.42188 0.102539 10.2812C0.0205078 12.1543 0 12.749 0 17.5C0 22.251 0.0205078 22.8457 0.102539 24.7119C0.18457 26.5713 0.485352 27.8496 0.916016 28.957C1.36719 30.1123 1.96191 31.0898 2.93945 32.0605C3.91016 33.0312 4.8877 33.6328 6.03613 34.0771C7.15039 34.5078 8.42188 34.8086 10.2813 34.8906C12.1475 34.9727 12.7422 34.9932 17.4932 34.9932C22.2441 34.9932 22.8389 34.9727 24.7051 34.8906C26.5645 34.8086 27.8428 34.5078 28.9502 34.0771C30.0986 33.6328 31.0762 33.0312 32.0469 32.0605C33.0176 31.0898 33.6191 30.1123 34.0635 28.9639C34.4941 27.8496 34.7949 26.5781 34.877 24.7188C34.959 22.8525 34.9795 22.2578 34.9795 17.5068C34.9795 12.7559 34.959 12.1611 34.877 10.2949C34.7949 8.43555 34.4941 7.15723 34.0635 6.0498C33.6328 4.8877 33.0381 3.91016 32.0606 2.93945C31.0898 1.96875 30.1123 1.36719 28.9639 0.922852C27.8496 0.492187 26.5781 0.191406 24.7188 0.109375C22.8457 0.0205078 22.251 0 17.5 0Z" fill="white"/>
<path d="M17.5 8.51074C12.5371 8.51074 8.51074 12.5371 8.51074 17.5C8.51074 22.4629 12.5371 26.4893 17.5 26.4893C22.4629 26.4893 26.4893 22.4629 26.4893 17.5C26.4893 12.5371 22.4629 8.51074 17.5 8.51074ZM17.5 23.3311C14.2803 23.3311 11.6689 20.7197 11.6689 17.5C11.6689 14.2803 14.2803 11.6689 17.5 11.6689C20.7197 11.6689 23.3311 14.2803 23.3311 17.5C23.3311 20.7197 20.7197 23.3311 17.5 23.3311Z" fill="white"/>
<path d="M28.9434 8.15521C28.9434 9.31732 28 10.2538 26.8447 10.2538C25.6826 10.2538 24.7461 9.31049 24.7461 8.15521C24.7461 6.9931 25.6895 6.05658 26.8447 6.05658C28 6.05658 28.9434 6.99994 28.9434 8.15521Z" fill="white"/>
</svg>
