<svg width="28" height="29" viewBox="0 0 28 29" fill="none" xmlns="http://www.w3.org/2000/svg">
<path d="M3.49969 6.04167C3.34509 6.03941 3.1916 6.06899 3.04814 6.1287C2.90468 6.1884 2.7741 6.27705 2.664 6.38948C2.55391 6.50191 2.46648 6.63588 2.40681 6.7836C2.34714 6.93133 2.31641 7.08987 2.31641 7.25C2.31641 7.41014 2.34714 7.56868 2.40681 7.7164C2.46648 7.86413 2.55391 7.9981 2.664 8.11053C2.7741 8.22296 2.90468 8.3116 3.04814 8.37131C3.1916 8.43102 3.34509 8.4606 3.49969 8.45834H24.4997C24.6543 8.4606 24.8078 8.43102 24.9512 8.37131C25.0947 8.3116 25.2253 8.22296 25.3354 8.11053C25.4455 7.9981 25.5329 7.86413 25.5926 7.7164C25.6522 7.56868 25.683 7.41014 25.683 7.25C25.683 7.08987 25.6522 6.93133 25.5926 6.7836C25.5329 6.63588 25.4455 6.50191 25.3354 6.38948C25.2253 6.27705 25.0947 6.1884 24.9512 6.1287C24.8078 6.06899 24.6543 6.03941 24.4997 6.04167H3.49969ZM3.49969 13.2917C3.34509 13.2894 3.1916 13.319 3.04814 13.3787C2.90468 13.4384 2.7741 13.527 2.664 13.6395C2.55391 13.7519 2.46648 13.8859 2.40681 14.0336C2.34714 14.1813 2.31641 14.3399 2.31641 14.5C2.31641 14.6601 2.34714 14.8187 2.40681 14.9664C2.46648 15.1141 2.55391 15.2481 2.664 15.3605C2.7741 15.473 2.90468 15.5616 3.04814 15.6213C3.1916 15.681 3.34509 15.7106 3.49969 15.7083H24.4997C24.6543 15.7106 24.8078 15.681 24.9512 15.6213C25.0947 15.5616 25.2253 15.473 25.3354 15.3605C25.4455 15.2481 25.5329 15.1141 25.5926 14.9664C25.6522 14.8187 25.683 14.6601 25.683 14.5C25.683 14.3399 25.6522 14.1813 25.5926 14.0336C25.5329 13.8859 25.4455 13.7519 25.3354 13.6395C25.2253 13.527 25.0947 13.4384 24.9512 13.3787C24.8078 13.319 24.6543 13.2894 24.4997 13.2917H3.49969ZM3.49969 20.5417C3.34509 20.5394 3.1916 20.569 3.04814 20.6287C2.90468 20.6884 2.7741 20.777 2.664 20.8895C2.55391 21.0019 2.46648 21.1359 2.40681 21.2836C2.34714 21.4313 2.31641 21.5899 2.31641 21.75C2.31641 21.9101 2.34714 22.0687 2.40681 22.2164C2.46648 22.3641 2.55391 22.4981 2.664 22.6105C2.7741 22.723 2.90468 22.8116 3.04814 22.8713C3.1916 22.931 3.34509 22.9606 3.49969 22.9583H24.4997C24.6543 22.9606 24.8078 22.931 24.9512 22.8713C25.0947 22.8116 25.2253 22.723 25.3354 22.6105C25.4455 22.4981 25.5329 22.3641 25.5926 22.2164C25.6522 22.0687 25.683 21.9101 25.683 21.75C25.683 21.5899 25.6522 21.4313 25.5926 21.2836C25.5329 21.1359 25.4455 21.0019 25.3354 20.8895C25.2253 20.777 25.0947 20.6884 24.9512 20.6287C24.8078 20.569 24.6543 20.5394 24.4997 20.5417H3.49969Z" fill="#FF50ED"/>
</svg>
