<svg width="290" height="90" viewBox="0 0 290 90" fill="none" xmlns="http://www.w3.org/2000/svg">
<g filter="url(#filter0_d)">
<path d="M55.2363 33.6133C55.2363 35.543 55.1009 37.4219 54.8301 39.25C54.5931 41.0443 54.2376 42.8724 53.7637 44.7344C53.3236 45.0729 53.0527 45.4961 52.9512 46.0039C52.8496 46.5117 52.6803 46.9857 52.4434 47.4258C52.2402 47.7982 51.9694 48.2044 51.6309 48.6445C51.2923 49.0508 50.9199 49.4909 50.5137 49.9648C50.1074 50.4049 49.7012 50.862 49.2949 51.3359C48.8887 51.8099 48.5501 52.2839 48.2793 52.7578C47.2637 53.0964 46.5358 53.8242 46.0957 54.9414C45.554 55.1445 44.9954 55.3815 44.4199 55.6523C43.8444 55.8893 43.4382 56.3125 43.2012 56.9219C41.9486 57.5651 40.7637 58.3099 39.6465 59.1562C38.5632 59.9688 37.3783 60.6797 36.0918 61.2891C35.9225 61.4583 35.7194 61.5938 35.4824 61.6953C35.2793 61.763 35.0592 61.8477 34.8223 61.9492C34.6191 62.0508 34.416 62.1693 34.2129 62.3047C34.0436 62.474 33.9421 62.6771 33.9082 62.9141C33.7728 62.9141 33.6712 62.8802 33.6035 62.8125C33.5697 62.7786 33.4681 62.7448 33.2988 62.7109C32.9264 62.9141 32.7572 63.2357 32.791 63.6758C32.6556 63.6081 32.4694 63.5742 32.2324 63.5742C31.8262 63.5742 31.4199 63.6927 31.0137 63.9297C30.6413 64.2005 30.3197 64.4714 30.0488 64.7422C29.6426 64.9453 29.1686 65.1484 28.627 65.3516C28.1191 65.5547 27.7467 65.8932 27.5098 66.3672C27.3743 66.2318 27.1712 66.1641 26.9004 66.1641C26.5957 66.1641 26.2741 66.2487 25.9355 66.418C25.597 66.6211 25.3431 66.8411 25.1738 67.0781C24.6999 67.0781 24.2428 67.1458 23.8027 67.2812C23.3965 67.4505 22.9733 67.6029 22.5332 67.7383C22.0931 67.9076 21.653 68.0599 21.2129 68.1953C20.8066 68.3307 20.3665 68.3984 19.8926 68.3984C19.6217 68.3984 19.4186 68.3307 19.2832 68.1953C19.1478 68.0599 18.9785 67.9414 18.7754 67.8398C18.6061 67.9753 18.3014 68.1276 17.8613 68.2969C17.4551 68.4661 17.1504 68.5508 16.9473 68.5508C16.5749 68.5508 16.2025 68.5 15.8301 68.3984C15.4915 68.2969 15.1361 68.1784 14.7637 68.043L13.6973 67.6875C13.3587 67.5859 12.9863 67.5182 12.5801 67.4844C12.2754 67.2135 11.903 66.9258 11.4629 66.6211C11.0566 66.3503 10.6504 66.2656 10.2441 66.3672C10.0749 65.8594 9.82096 65.4193 9.48242 65.0469C9.14388 64.6745 8.75456 64.3359 8.31445 64.0312C8.21289 63.9635 8.0944 63.8958 7.95898 63.8281C7.85742 63.7943 7.77279 63.7435 7.70508 63.6758C7.53581 63.5742 7.38346 63.3711 7.24805 63.0664C7.11263 62.7617 6.96029 62.6094 6.79102 62.6094C6.75716 62.6094 6.70638 62.6263 6.63867 62.6602C6.60482 62.694 6.57096 62.7109 6.53711 62.7109C6.4694 62.4062 6.36784 62.1185 6.23242 61.8477C6.09701 61.543 5.86003 61.3568 5.52148 61.2891C5.25065 60.4089 5.06445 59.5286 4.96289 58.6484C4.86133 57.7682 4.72591 56.888 4.55664 56.0078C4.48893 55.737 4.4043 55.4154 4.30273 55.043C4.23503 54.6367 4.20117 54.2812 4.20117 53.9766C4.20117 53.4688 4.26888 52.8594 4.4043 52.1484C4.57357 51.4375 4.70898 50.8112 4.81055 50.2695C5.2168 48.306 5.75846 46.4102 6.43555 44.582C7.11263 42.7201 7.84049 40.875 8.61914 39.0469C9.43164 37.2188 10.2611 35.4076 11.1074 33.6133C11.9538 31.819 12.7493 29.9909 13.4941 28.1289C13.6296 28.1289 13.7142 28.0951 13.748 28.0273L13.9004 27.7734C13.9681 27.6719 14.0189 27.5872 14.0527 27.5195C14.1204 27.4518 14.2389 27.418 14.4082 27.418V27.2656C14.3743 27.0625 14.4082 26.8932 14.5098 26.7578C14.6452 26.6224 14.679 26.4023 14.6113 26.0977C15.153 25.4883 15.61 24.8112 15.9824 24.0664C16.3548 23.2878 16.7272 22.526 17.0996 21.7812C17.5059 21.0365 17.929 20.3086 18.3691 19.5977C18.8092 18.8867 19.3678 18.2773 20.0449 17.7695V17.4141C20.0111 17.2448 20.0111 17.0755 20.0449 16.9062C20.1126 16.7031 20.2311 16.5677 20.4004 16.5C21.0098 15.8906 21.5176 15.2812 21.9238 14.6719C22.3301 14.0625 22.7363 13.4701 23.1426 12.8945C23.5827 12.2852 24.0566 11.7266 24.5645 11.2188C25.1061 10.6771 25.7832 10.1862 26.5957 9.74609C26.9681 9.57682 27.2389 9.32292 27.4082 8.98438C27.5775 8.64583 27.7975 8.40885 28.0684 8.27344C28.2038 8.20573 28.3392 8.17188 28.4746 8.17188C28.6439 8.13802 28.7962 8.08724 28.9316 8.01953C29.5072 7.85026 30.0827 7.64714 30.6582 7.41016C31.2337 7.13932 31.8431 7.00391 32.4863 7.00391C33.2988 7.00391 33.9082 7.24089 34.3145 7.71484C34.7546 8.15495 35.0931 8.69661 35.3301 9.33984C35.6009 9.98307 35.821 10.6602 35.9902 11.3711C36.1595 12.082 36.4303 12.6914 36.8027 13.1992C37.8184 13.2669 38.8509 13.3854 39.9004 13.5547C40.9499 13.6901 41.8639 14.1133 42.6426 14.8242C42.7103 14.8581 42.7949 14.875 42.8965 14.875C43.0658 14.875 43.1504 14.8073 43.1504 14.6719C43.1504 14.5365 43.235 14.4688 43.4043 14.4688H43.5566C44.5723 15.0781 45.5371 15.7552 46.4512 16.5C47.3991 17.2109 48.3301 17.9557 49.2441 18.7344C49.4134 18.8698 49.5827 19.0052 49.752 19.1406C49.9551 19.2422 50.1243 19.3776 50.2598 19.5469C50.429 19.75 50.5814 19.987 50.7168 20.2578C50.8861 20.5286 51.0384 20.7656 51.1738 20.9688C52.8665 23.9141 54.0007 27.0794 54.5762 30.4648C54.6439 30.8372 54.6947 31.1927 54.7285 31.5312C54.7962 31.8698 54.8301 32.1914 54.8301 32.4961C54.8301 32.8008 54.8978 33.0039 55.0332 33.1055C55.1686 33.1732 55.2363 33.3424 55.2363 33.6133ZM51.3262 36.2031C51.3262 34.849 51.1569 33.5456 50.8184 32.293C50.9876 32.2253 51.0892 32.1237 51.123 31.9883C51.1908 31.819 51.2246 31.6497 51.2246 31.4805V31.2266L50.6152 30.1094C50.5814 29.6354 50.4798 29.1953 50.3105 28.7891C50.1751 28.3828 50.0059 27.9766 49.8027 27.5703C49.5996 27.1641 49.3965 26.7578 49.1934 26.3516C49.0241 25.9453 48.9056 25.5052 48.8379 25.0312C48.2962 24.625 47.8053 24.168 47.3652 23.6602C46.959 23.1185 46.5866 22.5599 46.248 21.9844C46.0111 21.8828 45.791 21.8151 45.5879 21.7812C45.3848 21.7474 45.3171 21.5612 45.3848 21.2227C44.7754 21.0534 44.2168 20.8164 43.709 20.5117C43.235 20.1732 42.7611 19.8008 42.2871 19.3945C41.5085 19.2253 40.7298 19.0221 39.9512 18.7852C39.2064 18.5143 38.4447 18.3789 37.666 18.3789C37.1243 18.3789 36.5996 18.4805 36.0918 18.6836C36.2611 18.9544 36.3457 19.2591 36.3457 19.5977C36.3457 19.9023 36.3796 20.207 36.4473 20.5117C37.5306 20.7826 38.1908 21.4427 38.4277 22.4922C38.2585 22.5938 38.1061 22.7292 37.9707 22.8984C37.8353 23.0339 37.6999 23.1693 37.5645 23.3047C37.4629 23.4062 37.3275 23.5078 37.1582 23.6094C36.9889 23.7109 36.7858 23.7617 36.5488 23.7617C36.0749 23.7617 35.7025 23.6771 35.4316 23.5078C35.1947 23.3385 34.8053 23.3047 34.2637 23.4062C33.6882 22.8984 33.1296 22.3737 32.5879 21.832C32.0462 21.2565 31.4368 20.7487 30.7598 20.3086C30.6582 19.9701 30.4889 19.6654 30.252 19.3945C30.0488 19.1237 29.8288 18.8698 29.5918 18.6328C29.3887 18.362 29.1855 18.0911 28.9824 17.8203C28.8132 17.5156 28.7285 17.1771 28.7285 16.8047C28.7285 16.5677 28.7454 16.3984 28.7793 16.2969C28.5762 16.2292 28.4238 16.1953 28.3223 16.1953C28.0514 16.1953 27.7975 16.2969 27.5605 16.5C27.3236 16.6693 27.0527 16.7878 26.748 16.8555C26.4772 17.668 26.0879 18.3789 25.5801 18.9883C25.0723 19.5977 24.5475 20.1901 24.0059 20.7656C23.4642 21.3411 22.9564 21.9505 22.4824 22.5938C22.0423 23.2031 21.7207 23.9648 21.5176 24.8789C20.4342 26.2331 19.4355 27.7734 18.5215 29.5C17.6074 31.1927 16.9134 32.8516 16.4395 34.4766C15.6608 35.3568 15.0514 36.2878 14.6113 37.2695C14.1712 38.2513 13.9173 39.3346 13.8496 40.5195C13.6803 40.6211 13.5449 40.7565 13.4434 40.9258L12.9355 41.9414C12.8678 42.1107 12.7493 42.2461 12.5801 42.3477V42.6016C12.5801 42.8724 12.5293 43.1263 12.4277 43.3633C12.3262 43.5664 12.2077 43.7695 12.0723 43.9727C11.9707 44.1758 11.8691 44.3789 11.7676 44.582C11.666 44.7513 11.6152 44.9544 11.6152 45.1914C11.6152 45.4622 11.6829 45.7331 11.8184 46.0039C11.446 46.0716 11.1921 46.2747 11.0566 46.6133C10.9551 46.918 10.8027 47.1888 10.5996 47.4258C10.4642 48.5091 10.3288 49.6094 10.1934 50.7266C10.0579 51.8438 9.99023 52.944 9.99023 54.0273C9.99023 55.2799 10.1257 56.5495 10.3965 57.8359C10.7012 58.1406 10.972 58.4792 11.209 58.8516C11.446 59.224 11.6829 59.5794 11.9199 59.918C12.1908 60.2565 12.4785 60.5612 12.7832 60.832C13.0879 61.069 13.4941 61.2214 14.002 61.2891C14.002 61.526 14.0527 61.6953 14.1543 61.7969C14.2559 61.8984 14.3405 62.0339 14.4082 62.2031C15.1191 62.4401 15.8639 62.6263 16.6426 62.7617C17.4212 62.931 18.1999 63.0156 18.9785 63.0156C19.5202 63.0156 20.0618 62.9479 20.6035 62.8125C21.179 62.6771 21.653 62.4062 22.0254 62C23.752 61.9323 25.4616 61.526 27.1543 60.7812C28.8809 60.0365 30.4551 59.224 31.877 58.3438H32.9434C33.3158 57.8359 33.7728 57.4297 34.3145 57.125C34.8561 56.7865 35.4147 56.4818 35.9902 56.2109C36.0918 56.1432 36.2272 56.0755 36.3965 56.0078C36.5658 55.9401 36.7012 55.8724 36.8027 55.8047C37.1751 55.5339 37.5475 55.2292 37.9199 54.8906C38.3262 54.5521 38.7324 54.2305 39.1387 53.9258C39.8158 53.418 40.5098 52.9271 41.2207 52.4531C41.9316 51.9792 42.6087 51.4714 43.252 50.9297C43.929 50.388 44.5553 49.8125 45.1309 49.2031C45.7402 48.5599 46.248 47.849 46.6543 47.0703C46.8574 47.0703 47.0098 47.0195 47.1113 46.918C47.2467 46.7826 47.3483 46.6471 47.416 46.5117C47.5176 46.3763 47.6191 46.2578 47.7207 46.1562C47.8561 46.0547 48.0423 46.0039 48.2793 46.0039C48.2793 45.6992 48.3301 45.4453 48.4316 45.2422C48.5671 45.0052 48.7025 44.8021 48.8379 44.6328C49.0072 44.4297 49.1595 44.2435 49.2949 44.0742C49.4642 43.9049 49.6165 43.6849 49.752 43.4141V41.9922C50.2936 41.112 50.6829 40.181 50.9199 39.1992C51.1908 38.2174 51.3262 37.2188 51.3262 36.2031ZM101.447 29.5508H101.244C101.176 29.5169 101.109 29.5169 101.041 29.5508C100.973 29.5846 100.939 29.6354 100.939 29.7031C101.007 29.974 101.041 30.1602 101.041 30.2617C101.041 30.668 100.906 31.0234 100.635 31.3281C100.398 31.599 100.279 31.8359 100.279 32.0391C100.279 32.1406 100.33 32.2253 100.432 32.293C100.567 32.3607 100.669 32.4115 100.736 32.4453C100.567 32.6484 100.415 32.8685 100.279 33.1055C100.144 33.3424 99.9915 33.5456 99.8223 33.7148C99.89 34.8997 100.025 36.0677 100.229 37.2188C100.465 38.3359 100.584 39.4701 100.584 40.6211C100.584 41.1966 100.516 41.7721 100.381 42.3477C100.279 42.8893 100.161 43.4479 100.025 44.0234C99.89 44.5651 99.7546 45.1237 99.6191 45.6992C99.5176 46.2409 99.4668 46.7995 99.4668 47.375C99.0267 48.2552 98.5527 49.1016 98.0449 49.9141C97.5371 50.6927 97.1647 51.556 96.9277 52.5039C96.1491 52.9779 95.472 53.5703 94.8965 54.2812C94.3548 54.9583 93.8132 55.6354 93.2715 56.3125C92.0866 56.7188 91.0033 57.2604 90.0215 57.9375C89.8522 57.9714 89.6999 57.9883 89.5645 57.9883H89.1582C87.8717 57.9883 86.7715 57.7513 85.8574 57.2773C84.9434 56.8034 84.1478 56.194 83.4707 55.4492C82.8275 54.6706 82.2689 53.7904 81.7949 52.8086C81.321 51.8268 80.8809 50.8112 80.4746 49.7617C79.696 50.3372 78.985 50.9974 78.3418 51.7422C77.7324 52.4531 77.1061 53.1641 76.4629 53.875C76.2598 54.1458 76.0059 54.4674 75.7012 54.8398C75.4303 55.1784 75.1595 55.4323 74.8887 55.6016C74.7533 55.6693 74.6009 55.737 74.4316 55.8047C74.2962 55.8385 74.1439 55.8893 73.9746 55.957C73.0267 56.4987 72.2819 57.2266 71.7402 58.1406C71.0632 58.4115 70.403 58.7161 69.7598 59.0547C69.1504 59.3932 68.5579 59.7487 67.9824 60.1211C67.3392 60.1549 66.696 60.2057 66.0527 60.2734C65.4434 60.3073 64.834 60.3242 64.2246 60.3242C63.2767 60.3242 62.5996 60.2734 62.1934 60.1719C61.821 60.0365 61.5163 59.8841 61.2793 59.7148C61.0762 59.5117 60.8561 59.2747 60.6191 59.0039C60.416 58.7331 60.0098 58.4453 59.4004 58.1406C59.2311 57.7005 59.0618 57.2604 58.8926 56.8203C58.7572 56.3802 58.554 55.974 58.2832 55.6016V54.8906C58.2832 54.5859 58.2663 54.2982 58.2324 54.0273C58.2324 53.7565 58.1816 53.5195 58.0801 53.3164C57.9785 53.0794 57.8092 52.9271 57.5723 52.8594C57.5723 51.6068 57.7246 50.3711 58.0293 49.1523C58.334 47.9336 58.5879 46.6979 58.791 45.4453C58.9603 44.7344 59.0618 44.0065 59.0957 43.2617C59.1296 43.0924 59.1465 42.9062 59.1465 42.7031C59.1465 42.5 59.1803 42.2969 59.248 42.0938C59.3158 41.8906 59.4342 41.7214 59.6035 41.5859C59.7728 41.4505 59.8913 41.2474 59.959 40.9766C60.1283 40.5026 60.2298 39.9779 60.2637 39.4023C60.2975 38.8268 60.3483 38.2852 60.416 37.7773C60.5853 36.7617 60.7715 35.7461 60.9746 34.7305C61.2116 33.7148 61.4824 32.7161 61.7871 31.7344C61.7533 31.5651 61.7363 31.4128 61.7363 31.2773V30.7695C61.7363 29.4831 61.821 28.2305 61.9902 27.0117C62.1934 25.793 62.2949 24.5404 62.2949 23.2539C62.2949 22.6445 62.2441 22.0013 62.1426 21.3242C62.3118 20.9857 62.498 20.681 62.7012 20.4102C62.9382 20.1055 63.2428 19.8685 63.6152 19.6992C64.3262 20.0716 65.0202 20.4779 65.6973 20.918C66.4082 21.3242 67.0853 21.7812 67.7285 22.2891V23.5078C67.7285 24.4896 67.6947 25.5391 67.627 26.6562C67.5931 27.7396 67.4915 28.8398 67.3223 29.957C67.1868 31.0742 67.0007 32.1576 66.7637 33.207C66.5267 34.2565 66.2051 35.2214 65.7988 36.1016V37.7266C65.1895 38.8099 64.7832 39.944 64.5801 41.1289C64.377 42.3138 64.14 43.4987 63.8691 44.6836C63.8014 45.056 63.666 45.4961 63.4629 46.0039C63.2598 46.5117 63.1582 46.9518 63.1582 47.3242C63.1582 47.4935 63.1751 47.6628 63.209 47.832C63.2767 48.0013 63.3275 48.1706 63.3613 48.3398C63.0905 48.9492 62.9382 49.6094 62.9043 50.3203C62.9043 50.9974 62.8197 51.6745 62.6504 52.3516C62.9212 52.7917 63.1582 53.2656 63.3613 53.7734C63.5983 54.2474 63.8522 54.7383 64.123 55.2461L64.6309 55.1953C64.9355 55.1953 65.2572 55.2292 65.5957 55.2969C65.9342 55.3307 66.2559 55.3477 66.5605 55.3477C66.7298 55.3477 66.8991 55.3477 67.0684 55.3477C67.2376 55.3138 67.4069 55.2799 67.5762 55.2461C67.7793 54.8737 68.0501 54.5859 68.3887 54.3828C68.7272 54.1458 69.0658 53.9427 69.4043 53.7734C69.7767 53.6042 70.1152 53.418 70.4199 53.2148C70.7585 53.0117 71.0293 52.724 71.2324 52.3516H71.9434C72.0111 52.25 72.1296 52.1146 72.2988 51.9453C72.502 51.776 72.6882 51.6068 72.8574 51.4375C73.0267 51.2682 73.1621 51.099 73.2637 50.9297C73.3991 50.7604 73.4499 50.625 73.416 50.5234C73.8223 50.3542 74.1608 50.1341 74.4316 49.8633C74.7363 49.5586 75.0241 49.2539 75.2949 48.9492C75.5658 48.6107 75.8366 48.2891 76.1074 47.9844C76.3783 47.6797 76.6999 47.4258 77.0723 47.2227C77.0384 47.1549 77.0215 47.0703 77.0215 46.9688C77.0215 46.6641 77.1061 46.4271 77.2754 46.2578C77.4785 46.0885 77.5293 45.7839 77.4277 45.3438L77.5801 45.3945C77.7493 45.3945 77.8678 45.3438 77.9355 45.2422C78.0033 45.1406 78.054 45.0221 78.0879 44.8867C78.1556 44.7513 78.2233 44.6328 78.291 44.5312C78.3926 44.3958 78.528 44.3112 78.6973 44.2773V44.1758C78.6973 43.5664 78.8158 42.9909 79.0527 42.4492C79.3236 41.9076 79.459 41.332 79.459 40.7227C79.459 40.5534 79.4421 40.401 79.4082 40.2656C79.3743 40.0964 79.3236 39.9271 79.2559 39.7578C79.5605 39.4193 79.7467 39.0299 79.8145 38.5898C79.916 38.1497 79.9668 37.6927 79.9668 37.2188C80.0007 36.7448 80.0345 36.2708 80.0684 35.7969C80.1022 35.3229 80.2376 34.8659 80.4746 34.4258C80.4746 34.0872 80.3561 33.8503 80.1191 33.7148L80.7285 32.9023C80.9316 32.6315 81.1686 32.4115 81.4395 32.2422H81.541C81.9134 32.2422 82.235 32.3438 82.5059 32.5469C82.8105 32.7161 83.0814 32.9193 83.3184 33.1562C83.5892 33.3594 83.86 33.5794 84.1309 33.8164C84.4017 34.0195 84.7064 34.1719 85.0449 34.2734V35.3906C85.3835 35.526 85.6374 35.763 85.8066 36.1016C85.7728 37.0156 85.7389 37.9297 85.7051 38.8438C85.7051 39.7578 85.7051 40.6549 85.7051 41.5352C85.7051 42.8893 85.7389 44.2435 85.8066 45.5977C85.8743 46.918 86.0436 48.2383 86.3145 49.5586C86.6868 49.931 87.0592 50.3034 87.4316 50.6758C87.8379 51.0482 88.1426 51.4714 88.3457 51.9453H88.9551C90.14 51.9453 91.054 51.5729 91.6973 50.8281C92.3405 50.0495 92.7975 49.1523 93.0684 48.1367C93.5762 47.8997 93.9486 47.5781 94.1855 47.1719C94.4564 46.7318 94.6595 46.2578 94.7949 45.75C94.9642 45.2422 95.0996 44.7344 95.2012 44.2266C95.3366 43.6849 95.5397 43.2109 95.8105 42.8047C95.8444 42.3984 95.8613 41.9922 95.8613 41.5859V40.3164C95.8613 38.3529 95.7598 36.4062 95.5566 34.4766C95.3874 32.513 95.2858 30.5664 95.252 28.6367C95.1165 28.3659 95.015 28.0443 94.9473 27.6719L94.7949 26.5547C94.7611 26.1823 94.6764 25.8438 94.541 25.5391C94.4395 25.2005 94.2702 24.9635 94.0332 24.8281C94.1348 24.4896 94.1855 24.0833 94.1855 23.6094C94.1855 23.1693 94.1348 22.7292 94.0332 22.2891C93.9655 21.849 93.8809 21.4089 93.7793 20.9688C94.0501 20.7318 94.2702 20.4948 94.4395 20.2578C94.6087 20.0208 94.8965 19.9023 95.3027 19.9023C95.5397 19.9023 95.7428 19.9701 95.9121 20.1055C96.1152 20.2409 96.3014 20.3932 96.4707 20.5625C96.64 20.7318 96.8092 20.8841 96.9785 21.0195C97.1816 21.1549 97.4186 21.2227 97.6895 21.2227C97.7572 21.2227 97.8249 21.2227 97.8926 21.2227C97.9941 21.1888 98.0957 21.1719 98.1973 21.1719C98.5358 21.5104 98.8066 21.9336 99.0098 22.4414C99.2467 22.9492 99.4499 23.4909 99.6191 24.0664C99.8223 24.6081 100.025 25.1497 100.229 25.6914C100.465 26.2331 100.753 26.724 101.092 27.1641C101.092 27.2656 101.075 27.3672 101.041 27.4688C101.041 27.5365 101.041 27.6211 101.041 27.7227C101.041 28.0273 101.092 28.332 101.193 28.6367C101.295 28.9414 101.38 29.2461 101.447 29.5508ZM138.111 28.6367C138.044 29.043 137.942 29.3984 137.807 29.7031C137.705 29.974 137.688 30.3464 137.756 30.8203C137.417 30.8542 137.146 30.9727 136.943 31.1758C136.774 31.3451 136.622 31.5482 136.486 31.7852C136.385 32.0221 136.266 32.276 136.131 32.5469C136.029 32.7839 135.894 33.0039 135.725 33.207C135.995 34.4258 136.148 35.6615 136.182 36.9141C136.215 38.1667 136.3 39.4023 136.436 40.6211C136.605 42.1784 136.859 43.7188 137.197 45.2422C137.57 46.7318 137.756 48.2552 137.756 49.8125C137.756 50.2865 137.739 50.7266 137.705 51.1328C137.705 51.5391 137.705 51.9622 137.705 52.4023C137.705 52.6732 137.705 52.9609 137.705 53.2656C137.739 53.5365 137.756 53.8073 137.756 54.0781C137.756 55.0599 137.62 56.0417 137.35 57.0234C137.113 58.0052 136.926 58.987 136.791 59.9688C136.385 60.3411 136.029 60.7474 135.725 61.1875C135.454 61.6276 135.166 62.0339 134.861 62.4062C134.557 62.7786 134.201 63.1003 133.795 63.3711C133.389 63.6758 132.881 63.8789 132.271 63.9805C132.17 64.319 131.967 64.5729 131.662 64.7422C131.391 64.9115 131.154 65.1484 130.951 65.4531H130.85C130.003 65.4531 129.275 65.3346 128.666 65.0977C128.057 64.8607 127.481 64.5898 126.939 64.2852C126.432 63.9805 125.907 63.6589 125.365 63.3203C124.824 62.9818 124.197 62.7109 123.486 62.5078C122.538 61.7292 121.675 60.8828 120.896 59.9688C120.118 59.0208 119.238 58.1745 118.256 57.4297C118.019 56.7526 117.697 56.194 117.291 55.7539C116.919 55.3138 116.546 54.806 116.174 54.2305C116.005 53.9935 115.869 53.7734 115.768 53.5703C115.7 53.3672 115.598 53.1302 115.463 52.8594C115.361 52.5885 115.192 52.4023 114.955 52.3008C114.752 52.1992 114.566 52.0807 114.396 51.9453C114.126 50.8958 113.736 49.931 113.229 49.0508C112.721 48.1706 112.128 47.3242 111.451 46.5117C111.248 46.8841 111.079 47.2904 110.943 47.7305C110.842 48.1367 110.74 48.5599 110.639 49C110.537 49.4062 110.402 49.8294 110.232 50.2695C110.097 50.6758 109.911 51.0482 109.674 51.3867V51.5391C109.674 51.7083 109.742 51.8099 109.877 51.8438C110.012 51.8776 110.08 51.9792 110.08 52.1484C110.08 52.1823 110.063 52.2161 110.029 52.25C110.029 52.2839 110.029 52.3177 110.029 52.3516C109.86 52.487 109.725 52.6562 109.623 52.8594C109.555 53.0625 109.386 53.181 109.115 53.2148C109.149 53.3841 109.166 53.5534 109.166 53.7227V54.1797C109.166 55.1615 109.048 56.1432 108.811 57.125C108.607 58.1068 108.506 59.1055 108.506 60.1211V60.7812C108.506 61.0182 108.523 61.2383 108.557 61.4414C108.624 61.6445 108.726 61.8477 108.861 62.0508C108.997 62.2539 109.064 62.4401 109.064 62.6094C109.064 62.8464 108.963 63.0664 108.76 63.2695C108.997 63.4388 109.268 63.625 109.572 63.8281C109.877 64.0312 110.148 64.2513 110.385 64.4883C110.656 64.7591 110.876 65.0299 111.045 65.3008C111.214 65.6055 111.299 65.9271 111.299 66.2656C111.299 66.8411 111.113 67.2474 110.74 67.4844C110.368 67.7214 109.911 67.9076 109.369 68.043C108.861 68.1784 108.32 68.2969 107.744 68.3984C107.202 68.5339 106.745 68.7539 106.373 69.0586H106.221C105.814 69.0586 105.51 68.9401 105.307 68.7031C105.104 68.4661 104.799 68.3477 104.393 68.3477C103.749 67.2982 103.309 66.1133 103.072 64.793C102.835 63.5065 102.717 62.2708 102.717 61.0859C102.717 59.6302 102.852 58.1745 103.123 56.7188C103.36 55.263 103.665 53.8242 104.037 52.4023C104.376 50.9805 104.748 49.5755 105.154 48.1875C105.594 46.7656 106.001 45.3438 106.373 43.9219L106.424 43.7695C106.424 43.6003 106.373 43.4818 106.271 43.4141C106.204 43.3464 106.17 43.2448 106.17 43.1094C106.17 43.0417 106.187 43.0078 106.221 43.0078C106.322 42.6693 106.424 42.3477 106.525 42.043C106.661 41.7383 106.762 41.3997 106.83 41.0273C107.033 40.0794 107.169 39.1146 107.236 38.1328C107.338 37.1172 107.389 36.1185 107.389 35.1367C107.423 34.1549 107.456 33.1732 107.49 32.1914C107.558 31.1758 107.676 30.1771 107.846 29.1953C108.117 28.9245 108.37 28.6367 108.607 28.332C108.844 28.0273 109.149 27.7565 109.521 27.5195C110.199 27.5534 110.876 27.6549 111.553 27.8242C112.23 27.9935 112.873 28.2643 113.482 28.6367C113.889 30.0924 114.16 31.5482 114.295 33.0039C114.464 34.4596 114.735 35.9154 115.107 37.3711V37.5234C115.107 37.6927 115.192 37.7773 115.361 37.7773C115.564 37.7435 115.717 37.7943 115.818 37.9297C115.751 38.0312 115.7 38.1497 115.666 38.2852C115.666 38.4206 115.666 38.556 115.666 38.6914V39.5547C115.734 39.8255 115.818 40.1133 115.92 40.418C116.021 40.7227 116.242 40.9089 116.58 40.9766C116.749 42.0599 117.003 43.0586 117.342 43.9727C117.68 44.8867 118.07 45.7669 118.51 46.6133C118.95 47.4596 119.424 48.306 119.932 49.1523C120.439 49.9648 120.964 50.8281 121.506 51.7422C122.352 52.3854 123.08 53.1302 123.689 53.9766C124.299 54.7891 124.908 55.5846 125.518 56.3633C126.161 57.1081 126.872 57.7682 127.65 58.3438C128.463 58.9193 129.512 59.2747 130.799 59.4102C130.968 59.2747 131.087 59.0885 131.154 58.8516L131.408 58.1406C131.51 57.9036 131.611 57.7005 131.713 57.5312C131.848 57.3281 132.035 57.1758 132.271 57.0742C132.339 56.1263 132.407 55.1615 132.475 54.1797C132.576 53.1979 132.796 52.2669 133.135 51.3867C132.965 51.082 132.881 50.7096 132.881 50.2695C132.881 49.931 132.898 49.6094 132.932 49.3047C132.999 49 133.033 48.6953 133.033 48.3906C133.033 47.7474 132.898 47.2227 132.627 46.8164C132.627 46.5794 132.644 46.3424 132.678 46.1055C132.712 45.8346 132.813 45.5807 132.982 45.3438C132.712 44.6667 132.492 43.9557 132.322 43.2109C132.187 42.4661 132.119 41.7044 132.119 40.9258C132.119 40.4857 132.17 40.0286 132.271 39.5547C132.068 39.0469 131.933 38.4544 131.865 37.7773L131.662 35.6953C131.594 34.9844 131.493 34.3242 131.357 33.7148C131.222 33.1055 130.968 32.6146 130.596 32.2422C130.799 31.9375 130.9 31.582 130.9 31.1758C130.9 30.4987 130.799 29.8555 130.596 29.2461C130.393 28.6367 130.291 27.9935 130.291 27.3164C130.291 26.8424 130.393 26.3685 130.596 25.8945C131.34 25.9284 132.068 26.013 132.779 26.1484C133.524 26.25 134.252 26.3008 134.963 26.3008C135.166 26.5716 135.403 26.7917 135.674 26.9609C135.945 27.1302 136.232 27.2995 136.537 27.4688C136.842 27.6042 137.13 27.7565 137.4 27.9258C137.705 28.0951 137.942 28.332 138.111 28.6367ZM218.092 75.1523C218.092 75.457 217.973 75.7279 217.736 75.9648C217.533 76.2018 217.279 76.388 216.975 76.5234C216.67 76.6927 216.348 76.8451 216.01 76.9805C215.705 77.1159 215.434 77.2344 215.197 77.3359C214.825 77.1328 214.436 76.9974 214.029 76.9297C213.657 76.862 213.318 76.6927 213.014 76.4219H212.658C212.117 76.4219 211.693 76.4896 211.389 76.625C210.915 76.4557 210.525 76.2018 210.221 75.8633C209.916 75.5586 209.628 75.2201 209.357 74.8477C209.087 74.5091 208.816 74.1706 208.545 73.832C208.274 73.4935 207.936 73.2057 207.529 72.9688C206.92 71.276 206.378 69.5664 205.904 67.8398C205.43 66.1133 205.075 64.3529 204.838 62.5586C204.906 62.3893 204.956 62.2031 204.99 62C205.024 61.7969 205.041 61.6107 205.041 61.4414C205.041 61.306 205.007 61.1706 204.939 61.0352C204.906 60.8659 204.804 60.7643 204.635 60.7305C204.804 60.4596 204.906 60.1549 204.939 59.8164C205.007 59.444 205.041 59.1055 205.041 58.8008C205.041 58.1237 204.973 57.5651 204.838 57.125C205.041 56.9557 205.126 56.6849 205.092 56.3125C205.058 55.9062 205.143 55.6185 205.346 55.4492C205.176 54.8737 205.092 54.3151 205.092 53.7734C205.092 53.0286 205.176 52.3008 205.346 51.5898C205.549 50.8789 205.65 50.151 205.65 49.4062C205.65 49.237 205.633 49.0677 205.6 48.8984C205.6 48.7292 205.583 48.5599 205.549 48.3906C205.718 47.849 205.87 47.3073 206.006 46.7656C206.175 46.1901 206.26 45.6146 206.26 45.0391C206.26 44.6328 206.192 44.2943 206.057 44.0234C206.497 42.4661 206.801 40.9258 206.971 39.4023C207.174 37.8451 207.36 36.2708 207.529 34.6797C207.495 34.612 207.462 34.5612 207.428 34.5273C207.394 34.4935 207.377 34.4427 207.377 34.375C207.377 34.2057 207.462 34.0703 207.631 33.9688C207.834 33.8672 207.919 33.681 207.885 33.4102C207.479 33.8164 207.14 34.2904 206.869 34.832C206.632 35.3737 206.395 35.9154 206.158 36.457C205.955 36.9987 205.718 37.5404 205.447 38.082C205.21 38.5898 204.889 39.0469 204.482 39.4531C204.449 39.8255 204.33 40.181 204.127 40.5195C203.958 40.8581 203.873 41.2305 203.873 41.6367C203.839 41.6367 203.805 41.6367 203.771 41.6367C203.738 41.6029 203.687 41.5859 203.619 41.5859C203.484 41.5859 203.382 41.6706 203.314 41.8398C203.281 42.0091 203.179 42.0599 203.01 41.9922C202.231 43.5156 201.368 45.0052 200.42 46.4609C199.506 47.9167 198.304 49.0846 196.814 49.9648C196.544 49.8633 196.29 49.8125 196.053 49.8125C195.613 49.8125 195.173 49.9479 194.732 50.2188C194.326 50.4557 194.055 50.5742 193.92 50.5742C193.581 50.5742 193.158 50.4049 192.65 50.0664C192.176 49.694 191.686 49.4909 191.178 49.457C190.636 49.0846 190.179 48.7122 189.807 48.3398C189.468 47.9336 188.943 47.6966 188.232 47.6289C187.758 46.918 187.285 46.2409 186.811 45.5977C186.37 44.9544 185.93 44.3281 185.49 43.7188C185.084 43.0755 184.712 42.3984 184.373 41.6875C184.068 40.9766 183.831 40.181 183.662 39.3008C183.696 39.2331 183.713 39.1654 183.713 39.0977C183.713 38.8945 183.611 38.8099 183.408 38.8438C183.239 38.8776 183.154 38.776 183.154 38.5391V38.1836C183.154 37.9128 183.104 37.6758 183.002 37.4727C182.934 37.2357 182.917 36.9818 182.951 36.7109C182.714 36.3385 182.528 35.9492 182.393 35.543C182.257 35.1367 182.02 34.7812 181.682 34.4766V34.0195C181.682 33.8164 181.665 33.6302 181.631 33.4609C181.631 33.2578 181.58 33.0885 181.479 32.9531C181.411 32.7839 181.292 32.6823 181.123 32.6484C181.089 31.4297 180.835 30.194 180.361 28.9414C179.921 27.6549 179.515 26.4193 179.143 25.2344C178.872 26.1146 178.669 27.0117 178.533 27.9258C178.398 28.806 178.33 29.7031 178.33 30.6172V31.4805C178.33 31.7513 178.364 32.0221 178.432 32.293C178.33 32.4622 178.178 32.5807 177.975 32.6484C177.805 32.7161 177.704 32.8516 177.67 33.0547C177.636 33.224 177.619 33.3932 177.619 33.5625C177.653 33.7318 177.653 33.901 177.619 34.0703C177.551 34.8828 177.45 35.6615 177.314 36.4062C177.111 37.5234 176.874 38.6576 176.604 39.8086C176.333 40.9258 176.197 42.0768 176.197 43.2617C176.197 43.3294 176.197 43.431 176.197 43.5664C176.231 43.668 176.248 43.7526 176.248 43.8203C175.706 44.2943 175.419 44.8867 175.385 45.5977C175.351 46.3086 175.266 46.9857 175.131 47.6289C174.962 48.5768 174.758 49.5247 174.521 50.4727C174.285 51.3867 174.081 52.3346 173.912 53.3164C173.811 53.8581 173.726 54.3997 173.658 54.9414C173.59 55.4492 173.523 55.974 173.455 56.5156C173.421 56.8203 173.303 57.0742 173.1 57.2773C172.93 57.4805 172.812 57.7174 172.744 57.9883C172.71 58.2253 172.693 58.4961 172.693 58.8008C172.727 59.0716 172.744 59.3255 172.744 59.5625C172.744 59.9688 172.71 60.3581 172.643 60.7305C172.575 61.069 172.372 61.3737 172.033 61.6445C172.101 62.5247 172.253 63.2695 172.49 63.8789C172.727 64.5221 172.998 65.2331 173.303 66.0117H174.572V66.2148C174.572 66.5534 174.623 66.8581 174.725 67.1289C174.86 67.3997 175.114 67.5182 175.486 67.4844C175.452 67.6198 175.436 67.7891 175.436 67.9922C175.436 68.2969 175.486 68.5677 175.588 68.8047C175.723 69.0755 175.825 69.3633 175.893 69.668C175.215 70.7852 174.488 71.6146 173.709 72.1562C172.93 72.6979 171.864 72.9688 170.51 72.9688H169.697C169.528 72.4271 169.325 71.9023 169.088 71.3945C168.851 70.8867 168.614 70.3789 168.377 69.8711C168.174 69.3633 167.988 68.8385 167.818 68.2969C167.683 67.7891 167.615 67.2474 167.615 66.6719C167.615 66.5365 167.632 66.401 167.666 66.2656C167.7 66.1641 167.717 66.0456 167.717 65.9102C167.717 65.7409 167.649 65.6393 167.514 65.6055C167.378 65.5716 167.311 65.4023 167.311 65.0977C167.311 64.8607 167.294 64.6406 167.26 64.4375C167.26 64.2344 167.26 64.0143 167.26 63.7773C167.26 62.6602 167.344 61.5599 167.514 60.4766C167.683 59.3594 167.801 58.2422 167.869 57.125C168.038 56.9557 168.123 56.7357 168.123 56.4648C168.123 56.194 168.208 55.974 168.377 55.8047V55.4492C168.377 54.8398 168.445 54.2305 168.58 53.6211C168.715 53.0117 168.868 52.4193 169.037 51.8438C169.206 51.2682 169.359 50.6758 169.494 50.0664C169.63 49.457 169.697 48.8477 169.697 48.2383V47.4258C169.697 47.1888 169.799 47.0872 170.002 47.1211C170.239 47.1211 170.374 46.9857 170.408 46.7148C170.476 46.2409 170.51 45.7839 170.51 45.3438C170.544 44.8698 170.594 44.3958 170.662 43.9219C170.831 43.0078 171.018 42.0938 171.221 41.1797C171.424 40.2318 171.525 39.2839 171.525 38.3359V38.1836C171.525 38.082 171.61 37.8789 171.779 37.5742C171.949 37.2357 172.033 36.9141 172.033 36.6094C172.033 36.3724 171.982 36.1523 171.881 35.9492C171.915 35.9831 171.982 36 172.084 36C172.219 36 172.304 35.9661 172.338 35.8984C172.406 35.7969 172.49 35.7122 172.592 35.6445C172.49 35.5091 172.439 35.3737 172.439 35.2383C172.439 35.069 172.456 34.9167 172.49 34.7812C172.558 34.612 172.592 34.4427 172.592 34.2734C172.592 34.0365 172.473 33.8672 172.236 33.7656C172.643 33.0208 172.93 32.2253 173.1 31.3789C173.303 30.5326 173.438 29.6693 173.506 28.7891C173.607 27.9089 173.692 27.0286 173.76 26.1484C173.827 25.2344 173.98 24.3711 174.217 23.5586C174.149 23.3555 174.098 23.1354 174.064 22.8984C174.064 22.6615 174.064 22.4414 174.064 22.2383C174.064 22.1029 174.048 21.9674 174.014 21.832C173.98 21.6628 173.997 21.5104 174.064 21.375C174.064 21.3073 174.081 21.2227 174.115 21.1211L174.217 20.8164C174.285 20.5794 174.318 20.3424 174.318 20.1055C174.352 19.8346 174.386 19.5638 174.42 19.293C174.488 18.5143 174.505 17.7188 174.471 16.9062C174.471 16.0938 174.505 15.2812 174.572 14.4688C174.471 14.3333 174.369 14.2318 174.268 14.1641C174.166 14.0625 174.098 13.9271 174.064 13.7578C174.335 13.2839 174.623 12.8438 174.928 12.4375C175.266 11.9974 175.706 11.6589 176.248 11.4219C176.35 11.7943 176.62 11.9805 177.061 11.9805C177.264 11.9805 177.518 11.9297 177.822 11.8281C178.127 11.7266 178.33 11.5911 178.432 11.4219C179.007 11.625 179.583 11.7266 180.158 11.7266C180.768 11.6927 181.326 11.8281 181.834 12.1328C181.936 12.6406 182.071 13.1654 182.24 13.707C182.41 14.2487 182.646 14.7396 182.951 15.1797C183.019 15.6198 183.087 16.1615 183.154 16.8047C183.222 17.4141 183.29 18.0573 183.357 18.7344C183.425 19.3776 183.527 20.0039 183.662 20.6133C183.798 21.1888 183.984 21.6458 184.221 21.9844C184.255 22.5938 184.356 23.2031 184.525 23.8125C184.695 24.4219 184.881 25.0143 185.084 25.5898C185.287 26.1315 185.456 26.6393 185.592 27.1133C185.761 27.5872 185.846 27.9766 185.846 28.2812C185.846 28.5521 185.795 28.7383 185.693 28.8398C185.626 28.9076 185.558 29.043 185.49 29.2461C185.626 29.6185 185.812 29.9401 186.049 30.2109C186.286 30.4479 186.54 30.7357 186.811 31.0742C187.318 33.0039 187.979 34.8828 188.791 36.7109C189.604 38.5391 190.585 40.2995 191.736 41.9922C192.041 42.026 192.278 42.1107 192.447 42.2461C192.65 42.3815 192.955 42.4154 193.361 42.3477V42.7031C193.361 43.0417 193.429 43.2786 193.564 43.4141C193.869 43.6172 194.225 43.7188 194.631 43.7188C195.071 43.7188 195.41 43.6003 195.646 43.3633C195.917 43.0924 196.171 42.7878 196.408 42.4492C196.645 42.1107 196.882 41.7891 197.119 41.4844C197.356 41.1797 197.678 40.9766 198.084 40.875V40.7734C198.084 40.5026 198.135 40.2826 198.236 40.1133C198.372 39.9102 198.439 39.6901 198.439 39.4531C198.812 39.1823 199.1 38.8438 199.303 38.4375C199.506 38.0312 199.692 37.625 199.861 37.2188C200.031 36.7786 200.217 36.3724 200.42 36C200.657 35.6276 200.962 35.3229 201.334 35.0859C201.808 33.6302 202.383 32.276 203.061 31.0234C203.738 29.7708 204.449 28.5013 205.193 27.2148C205.193 27.1133 205.176 27.0117 205.143 26.9102C205.109 26.7747 205.092 26.6562 205.092 26.5547C205.092 26.5208 205.126 26.3685 205.193 26.0977C205.363 25.7591 205.515 25.4375 205.65 25.1328C205.786 24.8281 205.904 24.4896 206.006 24.1172C206.344 23.0677 206.649 22.0352 206.92 21.0195C207.225 20.0039 207.665 19.0391 208.24 18.125V16.8555C208.85 15.6367 209.273 14.3503 209.51 12.9961C209.781 11.6419 210.102 10.3216 210.475 9.03516C210.542 8.66276 210.661 8.29036 210.83 7.91797C211.033 7.51172 211.27 7.22396 211.541 7.05469C211.439 6.85156 211.389 6.64844 211.389 6.44531C211.389 6.17448 211.423 5.9375 211.49 5.73438C211.592 5.4974 211.676 5.26042 211.744 5.02344C211.643 4.78646 211.592 4.48177 211.592 4.10938C211.592 3.63542 211.727 3.19531 211.998 2.78906C212.269 2.34896 212.675 2.0612 213.217 1.92578C213.555 2.02734 213.843 2.19661 214.08 2.43359C214.317 2.67057 214.537 2.92448 214.74 3.19531C214.977 3.43229 215.214 3.63542 215.451 3.80469C215.722 3.9401 216.061 3.97396 216.467 3.90625C216.738 4.41406 216.924 4.95573 217.025 5.53125C217.127 6.07292 217.178 6.63151 217.178 7.20703C217.178 7.98568 217.11 8.79818 216.975 9.64453C216.839 10.457 216.788 11.2865 216.822 12.1328C216.551 12.6745 216.348 13.2669 216.213 13.9102C216.111 14.5195 216.01 15.1458 215.908 15.7891C215.807 16.4323 215.688 17.0586 215.553 17.668C215.417 18.2773 215.18 18.8529 214.842 19.3945C214.74 20.918 214.622 22.4076 214.486 23.8633C214.385 25.319 214.215 26.7747 213.979 28.2305L213.521 31.125C213.454 31.362 213.386 31.6328 213.318 31.9375C213.251 32.2083 213.217 32.4453 213.217 32.6484C213.217 32.8516 213.234 33.0716 213.268 33.3086C213.301 33.5117 213.403 33.6641 213.572 33.7656C213.335 34.1042 213.166 34.5104 213.064 34.9844C212.963 35.4583 212.861 35.9661 212.76 36.5078L212.506 38.082C212.438 38.5898 212.303 39.0469 212.1 39.4531V40.0117C212.1 41.3659 211.863 42.7539 211.389 44.1758V44.4297C211.389 44.599 211.372 44.7513 211.338 44.8867C211.338 44.9883 211.338 45.1237 211.338 45.293C211.338 45.5299 211.406 45.7161 211.541 45.8516C211.27 46.7318 211.016 47.6458 210.779 48.5938C210.542 49.5078 210.373 50.4557 210.271 51.4375C210.17 52.7578 210.153 54.112 210.221 55.5C210.288 56.8542 210.119 58.1745 209.713 59.4609C209.916 60.0703 210.051 60.7305 210.119 61.4414L210.322 63.5742C210.39 64.2852 210.492 64.9622 210.627 65.6055C210.796 66.2826 211.101 66.8411 211.541 67.2812C211.575 67.349 211.592 67.4505 211.592 67.5859C211.592 67.8568 211.524 68.0599 211.389 68.1953C211.456 68.5339 211.575 68.8216 211.744 69.0586C211.913 69.2956 212.083 69.5156 212.252 69.7188C212.421 69.9557 212.557 70.2096 212.658 70.4805C212.794 70.7513 212.861 71.0898 212.861 71.4961C213.132 71.8685 213.555 72.1562 214.131 72.3594C214.706 72.5625 215.282 72.7656 215.857 72.9688C216.467 73.1719 216.992 73.4258 217.432 73.7305C217.872 74.069 218.092 74.543 218.092 75.1523ZM252.979 29.7031V29.9062C252.742 29.974 252.623 30.1432 252.623 30.4141C252.251 30.5833 251.861 30.7188 251.455 30.8203C251.049 30.888 250.66 31.0065 250.287 31.1758C249.915 31.1419 249.525 31.125 249.119 31.125C248.747 31.0911 248.374 31.0742 248.002 31.0742C246.986 31.0742 245.971 31.1081 244.955 31.1758C243.939 31.2435 242.924 31.2435 241.908 31.1758C241.434 31.4466 240.91 31.6667 240.334 31.8359C239.792 31.9714 239.268 32.0391 238.76 32.0391C238.354 32.0391 237.998 31.9883 237.693 31.8867C236.881 32.293 235.984 32.6315 235.002 32.9023C234.054 33.1732 233.089 33.444 232.107 33.7148C231.126 33.9518 230.178 34.2396 229.264 34.5781C228.383 34.8828 227.605 35.3229 226.928 35.8984C226.86 36.3724 226.809 36.8464 226.775 37.3203C226.742 37.7604 226.725 38.2005 226.725 38.6406C226.725 39.1146 226.742 39.5547 226.775 39.9609C226.843 40.3672 226.962 40.7734 227.131 41.1797C227.3 41.2474 227.486 41.2982 227.689 41.332C227.926 41.3659 228.13 41.3828 228.299 41.3828C228.468 41.3828 228.637 41.3659 228.807 41.332C228.976 41.2643 229.094 41.1458 229.162 40.9766C229.67 40.9089 230.178 40.8919 230.686 40.9258C231.193 40.9258 231.701 40.9258 232.209 40.9258C232.717 40.9258 233.208 40.9089 233.682 40.875C234.189 40.8411 234.68 40.7565 235.154 40.6211C235.696 40.4857 236.221 40.401 236.729 40.3672C237.27 40.3333 237.795 40.2995 238.303 40.2656C238.811 40.2318 239.335 40.181 239.877 40.1133C240.419 40.0117 240.977 39.8255 241.553 39.5547C241.993 39.724 242.433 39.8086 242.873 39.8086C243.347 39.8086 243.804 39.8424 244.244 39.9102C244.481 40.0794 244.667 40.2656 244.803 40.4688C244.972 40.6719 245.057 40.9089 245.057 41.1797C245.057 41.6536 244.887 42.1276 244.549 42.6016C244.21 43.0755 243.939 43.5156 243.736 43.9219H243.178C242.365 43.9219 241.57 44.0404 240.791 44.2773C240.046 44.4805 239.285 44.7344 238.506 45.0391C237.761 45.3099 236.999 45.5638 236.221 45.8008C235.476 46.0039 234.697 46.1055 233.885 46.1055C233.749 46.1055 233.665 46.1901 233.631 46.3594C233.631 46.4948 233.597 46.5964 233.529 46.6641C233.36 46.6302 233.106 46.6133 232.768 46.6133C231.989 46.6133 231.244 46.6979 230.533 46.8672C229.822 47.0365 229.094 47.1211 228.35 47.1211C228.146 47.1211 227.943 47.1211 227.74 47.1211C227.537 47.0872 227.334 47.0534 227.131 47.0195C226.962 47.2904 226.742 47.4766 226.471 47.5781C226.2 47.6458 225.946 47.7812 225.709 47.9844C225.607 48.2891 225.54 48.6615 225.506 49.1016C225.506 49.5417 225.489 49.9987 225.455 50.4727C225.455 50.9128 225.421 51.3359 225.354 51.7422C225.286 52.1484 225.15 52.4701 224.947 52.707C224.981 52.8763 225.117 52.944 225.354 52.9102C225.59 52.8424 225.709 52.944 225.709 53.2148C225.709 53.5195 225.675 53.8411 225.607 54.1797C225.54 54.5182 225.506 54.8568 225.506 55.1953C225.506 55.8385 225.574 56.5495 225.709 57.3281C225.878 58.0729 226.115 58.7669 226.42 59.4102C226.758 60.0534 227.199 60.5951 227.74 61.0352C228.282 61.4414 228.959 61.6445 229.771 61.6445C230.313 61.6445 230.821 61.543 231.295 61.3398C231.769 61.1367 232.158 60.7982 232.463 60.3242L232.717 60.2734C232.852 60.2734 232.971 60.2904 233.072 60.3242C233.208 60.3581 233.343 60.375 233.479 60.375C233.682 60.375 233.936 60.2565 234.24 60.0195C234.579 59.7487 234.934 59.444 235.307 59.1055C235.713 58.7669 236.119 58.4453 236.525 58.1406C236.932 57.8021 237.321 57.5651 237.693 57.4297C237.93 56.9557 238.15 56.4818 238.354 56.0078C238.59 55.5339 238.929 55.1615 239.369 54.8906V53.418C239.708 53.0456 240.063 52.707 240.436 52.4023C240.842 52.0977 241.146 51.7083 241.35 51.2344C241.519 51.3021 241.671 51.3529 241.807 51.3867C241.976 51.4206 242.145 51.4375 242.314 51.4375C242.484 51.4375 242.653 51.4206 242.822 51.3867C243.025 51.3529 243.212 51.3021 243.381 51.2344C243.652 51.6068 243.855 52.0299 243.99 52.5039C244.16 52.944 244.363 53.3672 244.6 53.7734C244.295 54.3828 243.939 55.1107 243.533 55.957C243.127 56.8034 242.687 57.6497 242.213 58.4961C241.739 59.3424 241.231 60.1549 240.689 60.9336C240.182 61.6784 239.674 62.2539 239.166 62.6602C239.064 62.7617 238.844 62.8802 238.506 63.0156C238.133 63.2865 237.795 63.5404 237.49 63.7773C237.186 64.0482 236.898 64.3529 236.627 64.6914C235.645 64.9961 234.697 65.4023 233.783 65.9102C232.903 66.418 232.023 66.9089 231.143 67.3828C230.736 67.2812 230.296 67.2305 229.822 67.2305C229.416 67.2305 229.01 67.2474 228.604 67.2812C228.197 67.349 227.757 67.3828 227.283 67.3828C227.148 67.2135 226.945 67.0951 226.674 67.0273C226.437 66.9935 226.352 66.8242 226.42 66.5195C225.269 66.4518 224.338 66.1302 223.627 65.5547C222.916 65.013 222.307 64.3359 221.799 63.5234C221.325 62.7109 220.936 61.8307 220.631 60.8828C220.326 59.9349 220.005 59.0208 219.666 58.1406V57.9883C219.666 57.819 219.734 57.7174 219.869 57.6836C220.005 57.6497 220.072 57.5482 220.072 57.3789C220.072 57.3112 220.055 57.2604 220.021 57.2266C219.92 56.8542 219.835 56.5326 219.768 56.2617C219.7 55.9909 219.666 55.6693 219.666 55.2969C219.666 54.7552 219.7 54.2305 219.768 53.7227C219.835 53.181 219.869 52.6393 219.869 52.0977C219.869 51.556 219.801 51.082 219.666 50.6758C219.801 50.5065 219.92 50.2865 220.021 50.0156C220.089 49.7109 220.14 49.4062 220.174 49.1016C220.208 48.7969 220.225 48.4922 220.225 48.1875C220.258 47.8828 220.309 47.612 220.377 47.375C220.242 47.0026 220.123 46.681 220.021 46.4102C219.92 46.1055 219.869 45.75 219.869 45.3438V44.9883C220.208 44.4128 220.495 43.8203 220.732 43.2109C220.969 42.6016 221.223 41.9753 221.494 41.332V41.1797C221.494 40.1979 221.46 39.2161 221.393 38.2344C221.325 37.2526 221.291 36.2708 221.291 35.2891V34.3242C221.291 33.9857 221.308 33.6641 221.342 33.3594C221.613 33.224 221.816 33.0378 221.951 32.8008C222.087 32.5638 222.29 32.3776 222.561 32.2422H224.236L224.541 31.7344C224.643 31.5651 224.71 31.3789 224.744 31.1758C225.117 31.0742 225.472 30.9388 225.811 30.7695C226.183 30.5664 226.521 30.3633 226.826 30.1602C227.3 29.8893 227.723 29.6523 228.096 29.4492C228.502 29.2122 228.891 29.026 229.264 28.8906C229.67 28.7214 230.093 28.5859 230.533 28.4844C230.973 28.3828 231.481 28.2982 232.057 28.2305C232.327 28.2305 232.497 28.1797 232.564 28.0781C232.666 27.9766 232.801 27.8581 232.971 27.7227C233.377 27.7904 233.783 27.8581 234.189 27.9258C234.596 27.9596 235.002 27.9766 235.408 27.9766C236.221 27.9766 236.982 27.8242 237.693 27.5195C238.709 27.5195 239.708 27.5026 240.689 27.4688C241.705 27.4349 242.721 27.418 243.736 27.418C244.617 27.418 245.497 27.4518 246.377 27.5195C247.257 27.5872 248.12 27.7057 248.967 27.875C249.271 27.7734 249.61 27.7227 249.982 27.7227C250.389 27.7227 250.795 27.7734 251.201 27.875C251.641 27.9427 252.064 27.9427 252.471 27.875C252.505 28.2474 252.589 28.569 252.725 28.8398C252.894 29.0768 252.979 29.3646 252.979 29.7031Z" fill="#D842FE"/>
</g>
<g clip-path="url(#clip0)">
<path d="M262.267 71.0665L250.292 83.0405C248.734 84.6297 248.734 87.2186 250.292 88.8076C251.85 90.3967 254.389 90.3967 255.947 88.8076L267.998 76.761C265.566 75.504 263.56 73.5091 262.267 71.0665Z" fill="#E0E0E2"/>
<path d="M264.582 74.2351L250.292 88.8078C251.85 90.3969 254.389 90.3969 255.947 88.8078L267.998 76.7611C266.73 76.1057 265.578 75.2505 264.582 74.2351Z" fill="#C6C5CA"/>
<path d="M258.008 64.6281C258.008 73.6222 265.184 80.9401 274.004 80.9401C282.824 80.9401 290 73.6222 290 64.6281C290 55.634 282.824 48.3162 274.004 48.3162C265.184 48.3162 258.008 55.6341 258.008 64.6281Z" fill="#ED539D"/>
<path d="M285.308 53.098C288.205 56.0518 290 60.1303 290 64.6281C290 73.6222 282.824 80.94 274.004 80.94C269.593 80.94 265.594 79.1099 262.697 76.1554L285.308 53.098Z" fill="#EA348B"/>
<path d="M260.775 61.909C260.775 61.1576 261.371 60.5474 262.107 60.5474C262.108 60.5474 262.108 60.5474 262.108 60.5474C262.843 60.5474 263.441 61.1569 263.441 61.9073C263.443 67.1455 266.75 72.7835 274.004 72.7835C279.443 72.7835 281.92 68.5562 281.92 64.6279C281.919 60.6994 279.442 56.4721 274.004 56.4721C272.355 56.4721 270.986 57.0475 270.046 58.1359C269.207 59.1049 268.727 60.4803 268.728 61.9095C268.729 64.6157 270.361 67.3468 274.004 67.3468C275.946 67.3468 276.635 65.8822 276.635 64.629C276.634 63.3741 275.945 61.9095 274.004 61.9095C273.268 61.9095 272.671 61.3006 272.671 60.5502C272.671 59.7997 273.268 59.1909 274.004 59.1909C277.48 59.1909 279.3 61.9255 279.301 64.6282C279.301 67.3301 277.481 70.0656 274.004 70.0656C268.792 70.0656 266.063 65.9629 266.062 61.9105C266.061 59.798 266.765 57.8192 268.045 56.3377C269.507 54.6475 271.567 53.7535 274.004 53.7535C280.95 53.7535 284.585 59.2236 284.586 64.6282C284.586 70.032 280.951 75.5022 274.004 75.5022C265.323 75.5021 260.777 68.6631 260.775 61.909Z" fill="#FFCCE4"/>
<path d="M276.635 64.629C276.635 65.8821 275.946 67.3468 274.004 67.3468C273.141 67.3468 272.393 67.1922 271.751 66.9227L269.772 68.9409C270.923 69.6449 272.336 70.0655 274.004 70.0655C277.481 70.0655 279.301 67.33 279.301 64.6282C279.301 63.2067 278.796 61.7772 277.814 60.7405L275.929 62.6623C276.429 63.1998 276.635 63.9453 276.635 64.629Z" fill="#F7AFD1"/>
<path d="M284.586 64.6282C284.586 61.7884 283.581 58.9309 281.621 56.858L279.737 58.7794C281.216 60.3577 281.92 62.5353 281.92 64.6283C281.92 68.5567 279.443 72.7843 274.004 72.7843C271.456 72.7843 269.395 72.088 267.793 70.9585L265.892 72.8969C267.978 74.5053 270.689 75.5029 274.004 75.5029C280.951 75.5029 284.586 70.0318 284.586 64.6282Z" fill="#F7AFD1"/>
</g>
<defs>
<filter id="filter0_d" x="0.201172" y="1.92578" width="256.777" height="83.4102" filterUnits="userSpaceOnUse" color-interpolation-filters="sRGB">
<feFlood flood-opacity="0" result="BackgroundImageFix"/>
<feColorMatrix in="SourceAlpha" type="matrix" values="0 0 0 0 0 0 0 0 0 0 0 0 0 0 0 0 0 0 127 0"/>
<feOffset dy="4"/>
<feGaussianBlur stdDeviation="2"/>
<feColorMatrix type="matrix" values="0 0 0 0 0 0 0 0 0 0 0 0 0 0 0 0 0 0 0.25 0"/>
<feBlend mode="normal" in2="BackgroundImageFix" result="effect1_dropShadow"/>
<feBlend mode="normal" in="SourceGraphic" in2="effect1_dropShadow" result="shape"/>
</filter>
<clipPath id="clip0">
<rect width="40.8769" height="41.6842" fill="white" transform="translate(249.123 48.3158)"/>
</clipPath>
</defs>
</svg>
