<svg width="40" height="40" viewBox="0 0 40 40" fill="none" xmlns="http://www.w3.org/2000/svg">
<path d="M16.48 16.78C15.34 16.78 14.44 17.78 14.44 19C14.44 20.22 15.36 21.22 16.48 21.22C17.62 21.22 18.52 20.22 18.52 19C18.54 17.78 17.62 16.78 16.48 16.78ZM23.78 16.78C22.64 16.78 21.74 17.78 21.74 19C21.74 20.22 22.66 21.22 23.78 21.22C24.92 21.22 25.82 20.22 25.82 19C25.82 17.78 24.92 16.78 23.78 16.78Z" fill="white"/>
<path d="M33.5 0H6.70004C4.44004 0 2.60004 1.84 2.60004 4.12V31.16C2.60004 33.44 4.44004 35.28 6.70004 35.28H29.38L28.32 31.58L30.88 33.96L33.3 36.2L37.6 40V4.12C37.6 1.84 35.76 0 33.5 0ZM25.78 26.12C25.78 26.12 25.06 25.26 24.46 24.5C27.08 23.76 28.08 22.12 28.08 22.12C27.26 22.66 26.48 23.04 25.78 23.3C24.78 23.72 23.82 24 22.88 24.16C20.96 24.52 19.2 24.42 17.7 24.14C16.56 23.92 15.58 23.6 14.76 23.28C14.3 23.1 13.8 22.88 13.3 22.6C13.24 22.56 13.18 22.54 13.12 22.5C13.08 22.48 13.06 22.46 13.04 22.44C12.68 22.24 12.48 22.1 12.48 22.1C12.48 22.1 13.44 23.7 15.98 24.46C15.38 25.22 14.64 26.12 14.64 26.12C10.22 25.98 8.54003 23.08 8.54003 23.08C8.54003 16.64 11.42 11.42 11.42 11.42C14.3 9.26 17.04 9.32 17.04 9.32L17.24 9.56C13.64 10.6 11.98 12.18 11.98 12.18C11.98 12.18 12.42 11.94 13.16 11.6C15.3 10.66 17 10.4 17.7 10.34C17.82 10.32 17.92 10.3 18.04 10.3C19.26 10.14 20.64 10.1 22.08 10.26C23.98 10.48 26.02 11.04 28.1 12.18C28.1 12.18 26.52 10.68 23.12 9.64L23.4 9.32C23.4 9.32 26.14 9.26 29.02 11.42C29.02 11.42 31.9 16.64 31.9 23.08C31.9 23.08 30.2 25.98 25.78 26.12V26.12Z" fill="white"/>
</svg>
