<svg width="40" height="40" viewBox="0 0 40 40" fill="none" xmlns="http://www.w3.org/2000/svg">
<path d="M22.5624 19.7128C22.5624 25.9973 17.5116 31.0919 11.2814 31.0919C5.05121 31.0919 0 25.9962 0 19.7128C0 13.4294 5.05083 8.33331 11.2814 8.33331C17.512 8.33331 22.5624 13.4283 22.5624 19.7128Z" fill="white"/>
<path d="M34.938 19.7129C34.938 25.6284 32.4126 30.4258 29.2973 30.4258C26.182 30.4258 23.6566 25.6284 23.6566 19.7129C23.6566 13.7973 26.1817 8.99994 29.2969 8.99994C32.4122 8.99994 34.9376 13.7958 34.9376 19.7129" fill="white"/>
<path d="M40 19.7128C40 25.0117 39.1119 29.3099 38.0161 29.3099C36.9203 29.3099 36.0327 25.0128 36.0327 19.7128C36.0327 14.4128 36.9207 10.1157 38.0161 10.1157C39.1115 10.1157 40 14.4124 40 19.7128Z" fill="white"/>
</svg>
